**ABCDEFGHIJKLMNOPQRSTUVWXYZabcdefghijklmnopqrstuvwxyz**************************
**PARASOLID !"#$%&'()*+,-./:;<=>?@[\]^_`{|}~0123456789**************************
**PART1;
MC=unknown;
MC_MODEL=unknown;
MC_ID=unknown;
OS=unknown;
OS_RELEASE=unknown;
FRU=Parasolid 37.1.212;
APPL=Onshape;
SITE=unknown;
USER=unknown;
FORMAT=text;
GUISE=transmit;
KEY=BTGapi::writeModels_.xmt;
FILE=BTGapi::writeModels_.xmt;
DATE=2026-04-17T19:22:53 (UTC);
**PART2;
SCH=SCH_3701212_37102;
USFLD_SIZE=0;
**PART3;
**END_OF_HEADER*****************************************************************
T51 : TRANSMIT FILE created by modeller version 370121223 SCH_3701212_37102_1300
6239 0 176 6 14 PART_XMT_BLOCK9 Part list9 n_entries0 0 1 d16 index_map_offset0
 0 1 d9 index_map82 0 20 schema_embedding_map82 0 16 mesh_offset_data206 0 7 ent
ries1005 1 T4 1 4 0 0 0 0 2 3 4 5 12 36 CCCI7 lattice222 0 CCCI4 mesh1006 0 I8 p
olyline1008 0 CCCCCCCDI5 owner1040 0 CCCI16 boundary_lattice222 0 CCCI13 boundar
y_mesh1006 0 I17 boundary_polyline1008 0 CCCA16 index_map_offset0 0 1 dA9 index_
map82 0 A17 node_id_index_map82 0 A20 schema_embedding_map82 0 A5 child12 0 A14
 lowest_node_id0 0 1 dA16 mesh_offset_data206 0 Z2 348 6 7 0 0 0 0 0 0 0 1e3 1e-
8 0 8 9 1 0 1 2 10 0 11 12 13 0 0 14 15 16 0 0 0 0 0 0 0 12 3 348 17 18 0 0 0 0
 0 0 0 1e3 1e-8 0 19 0 1 0 1 2 20 0 21 22 23 0 0 24 25 27 0 0 0 0 0 0 0 12 4 127
 30 29 0 0 0 0 0 0 0 1e3 1e-8 0 26 28 1 0 1 2 34 0 35 32 0 0 0 33 31 0 0 0 0 0 0
 0 0 12 5 186 38 40 0 0 0 0 0 0 0 1e3 1e-8 0 36 39 1 0 1 2 37 0 41 45 43 0 0 42
 44 46 0 0 0 0 0 0 0 81 255 1 38 181 50 5 48 0 0 0 47 70 11 CI9 list_type0 0 1 u
I10 notransmit0 0 1 lCCCDCCDI12 finger_index0 0 1 dI12 finger_block1012 0 CZ40 0
 4 T5 0 0 5 20 1 49 49 13 255 37 79 0 5 0 51 0 0 55 0 50 255 41 76 0 51 52 0 0 +
.004 0 .001 1 0 0 0 0 -1 31 255 45 121 0 53 54 0 0 +0 183697019872103e-33 0 0 0
 1 1 0 0 .003 29 255 43 67 0 57 60 0 .004 -.00206155281280883 0 19 9 CCCCCCI5 fr
ame230 0 CA5 owner12 0 Z42 28 0 5 55 0 59 0 V0 16 255 44 70 56 ?58 0 63 54 0 0 5
 18 255 46 22 64 62 0 65 61 ?5 81 1 64 91 68 46 0 0 67 56 66 17 255 62 0 70 69 6
9 46 75 72 0 73 +18 65 17 71 74 46 57 79 ?5 29 61 24 0 46 79 60 .004 -.002061552
81280883 .001 29 79 19 0 65 0 61 .004 .00206155281280883 .001 29 60 68 0 80 61 4
3 .004 .00206155281280883 0 18 80 60 77 58 57 0 60 ?5 81 1 77 88 68 80 0 0 0 71
 78 17 58 0 76 83 75 80 74 44 0 85 +18 57 56 67 81 65 80 43 ?5 81 1 67 90 68 57
 0 0 71 64 84 17 81 0 82 86 90 57 73 63 0 83 +15 255 82 73 0 86 51 0 17 86 0 82
 74 81 80 88 87 0 0 -17 90 0 82 81 74 46 69 89 0 0 +17 73 0 76 75 83 46 81 63 0
 90 -16 63 69 91 ?81 44 72 95 0 0 5 17 83 0 76 73 58 57 85 93 0 88 +15 76 71 0 8
3 92 0 17 85 0 94 88 88 80 83 93 0 86 -16 93 48 96 ?83 89 87 100 0 0 5 17 88 0 9
4 85 85 57 86 87 0 0 +15 94 47 0 88 97 0 16 87 52 98 ?88 93 53 99 0 0 5 81 1 98
 96 68 87 0 0 102 105 104 16 53 137 101 ?103 87 108 45 0 0 5 30 255 99 66 0 87 1
09 100 0 +.004 0 0 0 -1 0 31 109 14 0 72 107 99 0 +-3972801866395855e-22 -484851
981919469e-33 .001 0 0 1 1 0 0 .00450035314162396 31 100 65 0 93 99 95 0 +-39728
01866395855e-22 -484851981919469e-33 0 0 0 1 1 0 0 .00450035314162396 30 95 77 0
 63 100 54 0 +.004 -.00206155281280883 .001 0 0 -1 30 54 78 0 44 95 45 0 +.004 .
00206155281280883 .001 0 0 -1 16 72 12 102 ?62 63 89 109 0 0 5 30 107 9 0 89 110
 109 0 +.004 0 .001 0 -1 0 16 89 7 105 ?90 72 93 107 0 0 5 31 110 171 0 108 0 10
7 0 +0 183697019872103e-33 .001 0 0 1 1 0 0 .003 16 108 143 106 ?113 53 0 110 0
 0 5 81 1 106 175 68 108 0 0 101 112 111 17 113 0 115 113 113 0 114 108 0 0 +15
 115 151 0 113 120 117 17 114 0 118 114 114 0 113 108 0 0 -15 118 127 0 114 116
 70 14 255 116 1 119 ?97 92 118 37 124 +0 0 97 92 59 15 70 6 0 69 116 0 17 69 0
 70 62 62 65 90 89 0 0 -81 1 119 184 125 116 122 0 123 121 128 14 97 42 121 ?120
 116 130 37 126 -0 0 120 116 59 14 92 72 123 ?116 51 76 37 52 -0 0 116 51 59 50
 124 3 0 116 129 126 0 +-3752109052979415e-22 0 .001 0 0 1 1 0 0 13 59 29 0 0 0
 0 0 0 42 51 14 51 74 127 ?92 0 82 37 41 +0 0 92 0 59 81 1 127 182 125 51 131 0
 0 123 135 80 7 CCCCCDI12 legal_owners0 17 1 lCZ1 125 0 133 8001 0 0 0 0 3 5 0 0
 0 FFFFTFTFFFFFFFFFF2 81 1 131 101 68 51 0 127 132 134 136 81 1 123 183 125 92 1
32 0 127 119 140 83 255 3 135 .917647058823529 .917647058823529 .917647058823529
 81 1 132 98 68 92 0 123 105 131 138 83 3 140 .917647058823529 .917647058823529
 .917647058823529 80 1 68 137 139 9000 0 0 0 0 3 6 0 0 0 FFTFTFTTFFFFFFFFF1 81 1
 105 97 68 89 0 0 98 132 141 82 255 3 138 8 0 2 82 3 141 8 5 1 79 255 9 139 BTI/
DetId81 1 134 102 68 5 0 145 131 101 142 82 3 136 8 3 2 81 1 145 179 143 5 134 4
8 0 0 144 81 1 101 174 68 53 0 0 134 106 147 82 3 142 8 0 3 82 3 147 12 0 1 80 1
 143 150 149 8038 0 0 0 0 0 0 0 0 0 TTTTTTTTTTTTTFTFT10 81 1 48 180 150 5 145 38
 0 0 146 98 255 6 144 80 97 114 116 32 49 80 1 150 148 153 8017 0 0 0 0 0 0 0 0
 0 TTTTTTTTTTTTTFTFT3 84 255 6 146 Part 179 13 153 SDL/TYSA_NAME79 14 149 SDL/TY
SA_UNAME79 15 133 SDL/TYSA_COLOUR51 255 129 168 0 120 0 124 0 +0 183697019872103
e-33 -.024 0 0 1 .003 1 0 0 50 126 64 0 97 124 52 0 +-3752109052979415e-22 0 0 0
 0 1 1 0 0 51 52 75 0 92 126 41 0 --3972801866395855e-22 -484851981919469e-33 .0
01 0 0 -1 .00450035314162396 -1 0 0 14 120 153 154 ?0 97 115 37 129 -0 0 0 97 59
 81 1 154 186 125 120 112 0 121 0 152 81 1 112 176 68 120 0 154 106 155 151 81 1
 121 185 125 97 155 0 119 154 158 83 3 152 .917647058823529 .917647058823529 .91
7647058823529 81 1 155 177 68 97 0 121 112 122 157 83 3 158 .917647058823529 .91
7647058823529 .917647058823529 81 1 122 178 68 116 0 119 155 0 156 82 3 157 12 1
 2 82 3 156 12 2 2 82 3 151 12 0 2 15 130 119 0 103 97 94 17 103 0 130 103 103 0
 160 53 0 0 +17 160 0 117 160 160 0 103 53 0 0 -15 117 152 0 160 120 0 83 3 128
 .917647058823529 .917647058823529 .917647058823529 82 3 111 12 1 1 81 1 102 95
 68 72 0 0 96 98 159 81 1 96 94 68 93 0 0 91 102 165 82 3 159 8 3 1 81 1 91 93 6
8 63 0 0 56 96 162 82 3 165 8 2 1 81 1 56 92 68 44 0 0 64 91 163 82 3 162 8 1 1
 82 3 163 8 0 1 82 3 104 8 4 1 17 75 0 76 58 73 65 62 72 0 69 -17 74 0 82 90 86
 65 58 44 0 75 -81 1 71 89 68 65 0 0 77 67 161 82 3 84 8 2 0 82 3 161 8 1 0 82 3
 78 8 0 0 82 3 66 8 3 0 19 55 80 0 5 0 42 37 0 S0 74 4 CI16 index_map_offset0 0
 1 dCCZ20 49 5 0 0 122 145 48 38 154 0 0 0 0 0 0 0 0 0 0 0 0 0 0 0 80 1 50 125 1
64 8040 0 0 0 0 3 5 0 0 0 TTTFFFFFFFFFFFFFF2 83 3 47 .917647058823529 .917647058
823529 .917647058823529 79 17 164 SDL/TYSA_COLOUR_281 1 30 123 50 4 169 0 0 0 17
0 70 29 0 4 T4 0 0 5 20 1 167 167 13 34 39 0 4 0 168 0 0 166 0 51 35 38 0 168 17
3 0 0 -.01098229327805536 1622657008870245e-34 .001 0 0 -1 .00265 -1 0 0 31 32 6
3 0 175 171 0 0 +.01098229327805536 232682891837997e-33 0 0 0 1 1 0 0 .00115 19
 33 13 0 4 166 0 174 0 V0 16 31 7 172 ?176 0 180 178 0 0 4 81 1 172 45 68 31 0 0
 177 179 181 17 176 0 185 176 176 0 183 31 0 0 +16 180 28 177 ?182 31 175 171 0
 0 4 31 178 9 0 31 184 171 0 +.01098229327805536 1622657008870245e-34 .001 0 0 1
 1 0 0 .00265 31 184 113 0 186 0 178 0 +.01098229327805536 232682891837997e-33 .
001 0 0 1 1 0 0 .00115 31 171 33 0 180 178 32 0 +.01098229327805536 162265700887
0245e-34 0 0 0 1 1 0 0 .00265 16 186 85 190 ?187 175 0 184 0 0 4 81 1 190 117 68
 186 0 0 188 189 192 17 187 0 195 187 187 0 194 186 0 0 +16 175 79 188 ?191 180
 186 32 0 0 4 81 1 188 116 68 175 0 0 193 190 198 17 191 0 199 191 191 0 197 175
 0 0 +15 199 61 0 191 200 196 17 197 0 203 197 197 0 191 175 0 0 -15 203 94 0 19
7 202 0 14 202 95 201 ?0 200 195 34 205 -0 0 0 200 174 81 1 201 127 125 202 189
 0 204 0 210 14 200 23 204 ?202 207 199 34 173 -0 0 202 207 174 15 195 93 0 187
 202 203 51 205 110 0 202 0 208 0 +.01098229327805536 232682891837997e-33 -.024
 0 0 1 .00115 1 0 0 13 174 14 0 0 0 0 0 0 33 168 14 168 35 206 ?207 0 209 34 35
 -0 0 207 0 174 81 1 206 124 125 168 179 0 0 214 215 14 207 1 214 ?200 168 212 3
4 208 +0 0 200 168 174 15 209 34 0 183 168 213 17 183 0 209 183 183 0 176 31 0 0
 -15 213 36 0 182 168 0 17 182 0 213 182 182 0 211 180 0 0 +17 211 0 196 211 211
 0 182 180 0 0 -15 196 27 0 211 200 0 81 1 214 125 125 207 218 0 206 204 220 15
 212 69 0 194 207 185 50 208 3 0 207 205 173 0 +.01098229327805536 0 .001 0 0 1
 1 0 0 50 173 32 0 200 208 35 0 +.01098229327805536 0 0 0 0 1 1 0 0 17 194 0 212
 194 194 0 187 186 0 0 -15 185 6 0 176 207 0 81 1 218 120 68 207 0 214 216 0 219
 81 1 204 126 125 200 216 0 214 201 217 83 3 220 .768627450980392 .8862745098039
22 .952941176470588 81 1 216 119 68 200 0 204 189 218 221 83 3 217 .768627450980
392 .886274509803922 .952941176470588 81 1 189 118 68 202 0 201 190 216 225 82 3
 221 19 1 2 82 3 225 19 0 2 82 3 219 19 2 2 81 1 179 46 68 168 0 206 172 193 223
 83 3 215 .768627450980392 .886274509803922 .952941176470588 81 1 193 49 68 4 0
 222 179 188 224 82 3 223 15 0 2 81 1 222 121 143 4 193 169 0 0 226 82 3 224 15
 0 3 81 1 169 122 150 4 222 30 0 0 230 98 6 226 80 97 114 116 32 50 84 6 230 Par
t 283 3 210 .768627450980392 .886274509803922 .952941176470588 82 3 198 19 0 1 8
2 3 192 19 1 1 81 1 177 44 68 180 0 0 0 172 228 82 3 228 15 0 1 82 3 181 15 1 1
 19 166 40 0 4 0 33 34 0 S0 74 20 167 5 0 0 218 222 169 30 201 0 0 0 0 0 0 0 0 0
 0 0 0 0 0 0 83 3 170 .768627450980392 .886274509803922 .952941176470588 81 1 17
 338 50 3 227 0 0 0 229 70 18 0 4 T3 0 0 5 20 1 231 231 13 20 258 0 3 0 235 0 0
 232 0 50 21 249 0 233 234 0 0 +.0751613974571228 .0066265803873539 .001 1 0 0 0
 0 -1 30 22 257 0 237 240 0 0 +.0751613974571228 .0321265803873539 .001 0 0 -1 2
9 23 210 0 239 236 0 .1381613974571228 .0336265803873539 0 19 24 89 0 3 232 0 23
8 0 V0 16 25 221 243 ?244 0 242 245 0 0 3 18 27 83 241 248 0 247 246 ?3 81 1 241
 300 68 27 0 0 250 249 255 17 248 0 252 253 251 27 254 259 0 260 +18 247 78 257
 251 27 258 256 ?3 29 246 85 0 27 256 263 .1381613974571228 .0336265803873539 .0
01 29 256 80 0 247 265 246 .1381613974571228 -.0208734196126461 .001 29 263 217
 0 261 246 264 .0751613974571228 .0321265803873539 0 18 261 197 262 266 270 0 26
3 ?3 29 264 216 0 270 263 268 .1366613974571228 .0321265803873539 0 18 270 193 2
67 269 271 261 264 ?3 29 268 215 0 271 264 275 .1366613974571228 -.0188734196126
461 0 18 271 189 273 272 274 270 268 ?3 29 275 214 0 274 268 276 .07516139745712
28 -.0188734196126461 0 18 274 185 280 277 278 271 275 ?3 29 276 213 0 278 275 2
79 .0736613974571228 .0336265803873539 0 18 278 181 282 285 284 274 276 ?3 29 27
9 212 0 284 276 236 .0736613974571228 -.0208734196126461 0 18 284 177 281 283 28
8 278 279 ?3 29 236 211 0 288 279 23 .1381613974571228 -.0208734196126461 0 18 2
88 173 289 287 239 284 236 ?3 81 1 289 297 68 288 0 0 290 257 286 17 287 0 293 2
92 291 288 295 294 0 300 +18 239 169 250 297 298 288 23 ?3 81 1 250 299 68 239 0
 0 257 241 296 17 297 0 299 260 300 239 304 305 0 302 +18 298 48 303 301 308 239
 310 ?3 81 1 303 286 68 298 0 0 262 280 306 17 301 0 309 307 311 298 266 237 0 3
15 -18 308 53 313 312 314 298 316 ?3 29 310 50 0 298 0 316 .0751613974571228 .03
21265803873539 .001 29 316 55 0 308 310 320 .1366613974571228 .0321265803873539
 .001 29 320 60 0 314 316 318 .1366613974571228 -.0188734196126461 .001 18 314 5
8 317 319 321 308 320 ?3 29 318 65 0 321 320 325 .0751613974571228 -.01887341961
26461 .001 18 321 63 322 323 324 314 318 ?3 29 325 70 0 324 318 265 .07366139745
71228 .0336265803873539 .001 18 324 68 327 330 258 321 325 ?3 29 265 75 0 258 32
5 256 .0736613974571228 -.0208734196126461 .001 18 258 73 290 329 247 324 265 ?3
 81 1 290 296 68 258 0 0 281 289 326 17 329 0 252 251 253 258 330 328 0 333 +15
 252 7 0 253 334 0 17 251 0 252 248 329 247 332 335 0 292 +17 253 0 252 329 248
 324 331 338 0 337 +17 330 0 336 244 333 324 329 328 0 253 -16 328 33 340 ?329 3
35 338 339 0 0 3 17 333 0 336 330 283 258 291 242 0 332 -15 336 230 0 283 345 0
 17 283 0 336 333 244 284 285 342 0 291 +17 291 0 293 287 332 284 333 242 0 295
 +16 242 220 343 ?291 25 341 344 0 0 3 17 332 0 293 291 292 258 251 335 0 0 -15
 293 228 0 287 349 0 17 292 0 293 332 287 247 300 341 0 254 -16 335 38 350 ?251
 259 328 347 0 0 3 81 1 350 320 68 335 0 0 348 346 353 16 259 43 355 ?248 351 33
5 354 0 0 3 30 347 40 0 335 339 354 0 +.1059113974571228 -.0208734196126461 .001
 1 0 0 30 339 35 0 328 352 347 0 +.0736613974571228 .0063765803873539 .001 0 -1
 0 30 354 45 0 259 347 356 0 +.1381613974571228 .0063765803873539 .001 0 1 0 30
 356 209 0 360 354 358 0 +.0751613974571228 .0066265803873539 0 0 -1 0 16 360 16
5 357 ?359 361 0 356 0 0 3 30 358 208 0 361 356 365 0 +.1059113974571228 .032126
5803873539 0 -1 0 0 16 361 161 363 ?362 364 360 358 0 0 3 30 365 207 0 364 358 3
66 0 +.1366613974571228 .0066265803873539 0 0 1 0 16 364 157 370 ?367 368 361 36
5 0 0 3 30 366 206 0 368 365 369 0 +.1059113974571228 -.0188734196126461 0 1 0 0
 16 368 153 372 ?375 374 364 366 0 0 3 30 369 205 0 374 366 371 0 +.105911397457
1228 .0336265803873539 0 -1 0 0 16 374 149 373 ?378 342 368 369 0 0 3 30 371 204
 0 342 369 379 0 +.0736613974571228 .0063765803873539 0 0 -1 0 16 342 145 377 ?2
83 294 374 371 0 0 3 30 379 203 0 294 371 380 0 +.1059113974571228 -.02087341961
26461 0 1 0 0 16 294 141 348 ?287 305 342 379 0 0 3 30 380 202 0 305 379 376 0 +
.1381613974571228 .0063765803873539 0 0 1 0 16 305 137 346 ?297 383 294 380 0 0
 3 30 376 250 0 382 380 381 0 +.1381613974571228 .0336265803873539 .001 0 0 -1 1
6 382 218 385 ?302 341 237 376 0 0 3 30 381 251 0 341 376 344 0 +.13816139745712
28 -.0208734196126461 .001 0 0 -1 16 341 219 384 ?300 242 382 381 0 0 3 30 344 2
52 0 242 381 245 0 +.0736613974571228 -.0208734196126461 .001 0 0 -1 30 245 253
 0 25 344 390 0 +.0736613974571228 .0336265803873539 .001 0 0 -1 30 390 254 0 35
1 245 387 0 +.0751613974571228 -.0188734196126461 .001 0 0 -1 16 351 222 388 ?27
7 386 259 390 0 0 3 30 387 255 0 386 390 240 0 +.1366613974571228 -.018873419612
6461 .001 0 0 -1 16 386 223 389 ?272 394 351 387 0 0 3 30 240 256 0 394 387 22 0
 +.1366613974571228 .0321265803873539 .001 0 0 -1 16 394 224 395 ?269 237 386 24
0 0 0 3 81 1 395 304 68 394 0 0 389 243 392 17 269 0 393 391 398 270 312 394 0 4
00 +16 237 225 249 ?266 382 394 22 0 0 3 81 1 249 301 68 237 0 0 241 388 396 17
 266 0 399 400 397 261 301 237 0 311 +15 399 238 0 400 401 0 17 400 0 399 312 26
6 270 362 361 0 367 -17 397 0 399 266 312 298 405 403 0 0 +17 311 0 309 301 277
 261 359 360 0 362 -15 309 240 0 311 233 0 17 277 0 309 311 307 274 323 351 0 35
9 +17 359 0 402 375 362 274 311 360 0 404 +17 362 0 402 359 367 261 400 361 0 0
 +15 402 135 0 359 406 410 17 367 0 402 362 375 270 391 364 0 0 +17 375 0 402 36
7 359 271 404 368 0 0 +17 391 0 393 319 269 271 367 364 0 375 -15 393 236 0 391
 408 0 17 319 0 393 398 391 314 272 386 0 407 -17 398 0 393 269 319 308 407 409
 0 0 +17 272 0 411 404 415 271 319 386 0 391 +17 407 0 412 413 405 314 398 409 0
 415 -15 412 6 0 315 334 252 17 413 0 412 315 407 321 415 414 0 0 -17 405 0 412
 407 315 308 397 403 0 398 -16 409 18 417 ?398 414 403 420 0 0 3 17 415 0 411 27
2 323 314 413 414 0 0 +15 411 234 0 404 419 0 17 323 0 411 415 404 321 277 351 0
 307 -16 414 23 416 ?415 338 409 418 0 0 3 81 1 416 312 68 414 0 0 372 370 423 1
6 338 28 424 ?253 328 414 352 0 0 3 30 418 25 0 414 420 352 0 +.1059113974571228
 -.0188734196126461 .001 1 0 0 30 420 20 0 409 422 418 0 +.1366613974571228 .006
6265803873539 .001 0 1 0 30 352 30 0 338 418 339 0 +.1059113974571228 .033626580
3873539 .001 -1 0 0 30 422 15 0 403 425 420 0 +.1059113974571228 .03212658038735
39 .001 -1 0 0 16 403 13 421 ?397 409 383 422 0 0 3 30 425 10 0 383 0 422 0 +.07
51613974571228 .0066265803873539 .001 0 -1 0 16 383 8 428 ?307 403 305 425 0 0 3
 81 1 428 310 68 383 0 0 357 372 427 17 307 0 309 277 301 321 315 383 0 413 +17
 315 0 412 405 413 298 307 383 0 397 -81 1 357 309 68 360 0 0 385 428 426 81 1 3
72 311 68 368 0 0 428 416 430 82 3 427 23 9 1 82 3 430 23 10 1 81 1 385 308 68 3
82 0 0 384 357 429 82 3 426 23 8 1 81 1 384 307 68 341 0 0 343 385 435 82 3 429
 23 7 1 81 1 343 306 68 242 0 0 243 384 432 82 3 435 23 6 1 81 1 243 305 68 25 0
 0 395 343 433 82 3 432 23 5 1 82 3 433 23 4 1 81 1 421 316 68 403 0 0 363 377 4
31 81 1 363 315 68 361 0 0 417 421 434 81 1 377 317 68 342 0 0 421 340 439 82 3
 431 23 15 1 81 1 340 318 68 328 0 0 377 348 440 82 3 439 23 16 1 81 1 348 319 6
8 294 0 0 340 350 437 82 3 440 23 17 1 82 3 437 23 18 1 81 1 417 314 68 409 0 0
 370 363 438 82 3 434 23 14 1 81 1 370 313 68 364 0 0 416 417 436 82 3 438 23 13
 1 82 3 436 23 12 1 81 1 424 324 68 338 0 0 373 443 445 81 1 373 323 68 374 0 0
 355 424 441 81 1 443 325 68 233 0 444 424 442 446 82 3 445 23 23 1 14 233 241 4
44 ?401 349 309 20 21 +0 0 401 349 238 81 1 444 342 125 233 443 0 450 448 447 81
 1 442 326 68 406 0 449 443 451 455 82 3 446 23 0 2 14 406 124 449 ?0 334 402 20
 453 -0 0 0 334 238 81 1 449 348 125 406 442 0 452 0 454 81 1 451 327 68 334 0 4
52 442 456 460 82 3 455 23 1 2 14 334 1 452 ?406 457 412 20 458 +0 0 406 457 238
 81 1 452 347 125 334 451 0 459 449 462 81 1 456 328 68 419 0 465 451 464 461 82
 3 460 23 2 2 14 419 235 465 ?457 408 411 20 463 +0 0 457 408 238 81 1 465 345 1
25 419 456 0 468 459 469 81 1 464 329 68 408 0 468 456 467 470 82 3 461 23 3 2 1
4 408 237 468 ?419 401 393 20 466 +0 0 419 401 238 81 1 468 344 125 408 464 0 44
8 465 473 81 1 467 330 68 401 0 448 464 472 471 82 3 470 23 4 2 14 401 239 448 ?
408 233 399 20 234 +0 0 408 233 238 81 1 448 343 125 401 467 0 444 468 475 81 1
 472 331 68 345 0 474 467 480 477 82 3 471 23 5 2 14 345 231 474 ?349 235 336 20
 478 -0 0 349 235 238 81 1 474 340 125 345 472 0 476 450 479 81 1 480 332 68 349
 0 450 472 484 485 82 3 477 23 6 2 14 349 229 450 ?233 345 293 20 482 -0 0 233 3
45 238 81 1 450 341 125 349 480 0 474 444 483 81 1 484 333 68 457 0 459 480 481
 488 82 3 485 23 7 2 14 457 227 459 ?334 419 299 20 490 -0 0 334 419 238 81 1 45
9 346 125 457 484 0 465 452 486 81 1 481 334 68 235 0 476 484 489 487 82 3 488 2
3 8 2 14 235 233 476 ?345 0 491 20 495 -0 0 345 0 238 81 1 476 339 125 235 481 0
 0 474 493 81 1 489 335 68 3 0 492 481 0 494 82 3 487 23 9 2 81 1 492 336 143 3
 489 227 0 0 496 82 3 494 23 0 3 81 1 227 337 150 3 492 17 0 0 500 98 6 496 80 9
7 114 116 32 52 84 6 500 Part 483 3 493 .917647058823529 .917647058823529 .91764
7058823529 15 491 232 0 378 235 0 50 495 245 0 235 478 463 0 +.1059113974571228
 .0336265803873539 .001 0 -1 0 0 0 -1 13 238 90 0 0 0 0 0 0 24 235 50 478 244 0
 345 482 495 0 +.0736613974571228 .0063765803873539 .001 1 0 0 0 0 -1 50 463 246
 0 419 495 466 0 +.1059113974571228 -.0188734196126461 .001 0 1 0 0 0 1 50 466 2
47 0 408 463 234 0 +.1366613974571228 .0066265803873539 .001 -1 0 0 0 0 1 50 234
 248 0 401 466 21 0 +.1059113974571228 .0321265803873539 .001 0 -1 0 0 0 -1 50 4
82 243 0 349 490 478 0 +.1059113974571228 -.0208734196126461 .001 0 1 0 0 0 1 50
 490 242 0 457 453 482 0 +.1381613974571228 .0063765803873539 .001 -1 0 0 0 0 1
 50 453 201 0 406 458 490 0 +.1059113974571228 .0063765803873539 0 0 0 1 1 0 0 5
0 458 3 0 334 0 453 0 +.1059113974571228 .0063765803873539 .001 0 0 1 1 0 0 17 3
78 0 491 337 302 278 498 374 0 0 +17 337 0 491 331 378 324 244 25 0 0 -17 302 0
 491 378 331 239 260 382 0 498 +17 498 0 410 304 285 239 378 374 0 0 -15 410 136
 0 498 406 0 17 304 0 410 295 498 288 297 305 0 0 -17 285 0 410 498 295 278 283
 342 0 244 -17 295 0 410 285 304 284 287 294 0 0 -17 244 0 336 283 330 278 337 2
5 0 378 +17 331 0 491 302 337 27 253 338 0 0 -17 260 0 299 254 297 27 302 382 0
 331 -15 299 226 0 297 457 0 17 254 0 299 300 260 247 248 259 0 0 -17 300 0 299
 297 254 288 292 341 0 304 +83 3 486 .917647058823529 .917647058823529 .91764705
8823529 83 3 483 .917647058823529 .917647058823529 .917647058823529 83 3 479 .91
7647058823529 .917647058823529 .917647058823529 83 3 475 .917647058823529 .91764
7058823529 .917647058823529 83 3 473 .917647058823529 .917647058823529 .91764705
8823529 83 3 469 .917647058823529 .917647058823529 .917647058823529 83 3 462 .91
7647058823529 .917647058823529 .917647058823529 83 3 454 .917647058823529 .91764
7058823529 .917647058823529 83 3 447 .917647058823529 .917647058823529 .91764705
8823529 81 1 355 322 68 259 0 0 346 373 497 82 3 441 23 22 1 81 1 346 321 68 305
 0 0 350 355 499 82 3 497 23 21 1 82 3 499 23 20 1 82 3 423 23 11 1 17 404 0 411
 323 272 274 375 368 0 0 -17 312 0 399 397 400 308 269 394 0 405 -81 1 388 302 6
8 351 0 0 249 389 501 82 3 396 23 0 1 81 1 389 303 68 386 0 0 388 395 505 82 3 5
01 23 1 1 82 3 505 23 2 1 82 3 392 23 3 1 82 3 353 23 19 1 81 1 281 295 68 284 0
 0 327 290 502 82 3 326 23 11 0 81 1 327 294 68 324 0 0 282 281 503 82 3 502 23
 10 0 81 1 282 293 68 278 0 0 313 327 504 82 3 503 23 9 0 81 1 313 292 68 308 0
 0 267 282 507 82 3 504 23 8 0 81 1 267 291 68 270 0 0 317 313 510 82 3 507 23 7
 0 81 1 317 290 68 314 0 0 273 267 509 82 3 510 23 6 0 81 1 273 289 68 271 0 0 3
22 317 506 82 3 509 23 5 0 81 1 322 288 68 321 0 0 280 273 508 82 3 506 23 4 0 8
1 1 280 287 68 274 0 0 303 322 513 82 3 508 23 3 0 82 3 513 23 2 0 81 1 262 285
 68 261 0 0 0 303 514 82 3 306 23 1 0 82 3 514 23 0 0 81 1 257 298 68 247 0 0 28
9 250 512 82 3 296 23 14 0 82 3 512 23 13 0 82 3 286 23 12 0 82 3 255 23 15 0 19
 232 259 0 3 0 24 20 0 S0 74 20 231 5 0 0 489 492 227 17 449 0 0 0 0 0 0 0 0 0 0
 0 0 0 0 0 83 3 229 .917647058823529 .917647058823529 .917647058823529 81 1 6 33
8 50 2 515 0 0 0 511 70 7 0 4 T2 0 0 5 20 1 518 518 13 10 258 0 2 0 517 0 0 516
 0 50 11 249 0 520 519 0 0 +-.0723169069483061 .00573178090415568 .001 1 0 0 0 0
 -1 30 12 257 0 525 522 0 0 +-.0723169069483061 .00785678090415568 .001 0 0 -1 2
9 13 210 0 523 521 0 -.0733335674717207 .00860678090415567 0 19 14 89 0 2 516 0
 524 0 V0 16 15 221 529 ?530 0 527 528 0 0 2 18 16 83 526 533 0 535 531 ?2 81 1
 526 298 68 16 0 0 534 532 536 17 533 0 540 538 537 16 539 541 0 545 -18 535 78
 543 542 16 544 546 ?2 29 531 85 0 16 546 550 -.0733335674717207 .00860678090415
567 .001 29 546 80 0 535 547 531 -.04376690694830615 .00860678090415567 .001 29
 550 217 0 548 531 549 -.0723169069483061 .00785678090415568 0 18 548 197 552 55
5 554 0 550 ?2 29 549 216 0 554 550 551 -.0445729068484847 .0078564119482794 0 1
8 554 193 553 558 559 548 549 ?2 29 551 215 0 559 549 557 -.04451690694830615 .0
03606780904155685 0 18 559 189 560 556 563 554 551 ?2 29 557 214 0 563 551 562 -
.0723169069483061 .00360678090415568 0 18 563 185 561 565 564 559 557 ?2 29 562
 213 0 564 557 570 -.0733335674717207 .002856780904155675 0 18 564 181 567 530 5
68 563 562 ?2 29 570 212 0 568 562 521 -.0437669069483061 .002856780904155685 0
 18 568 177 566 569 574 564 570 ?2 29 521 211 0 574 570 13 -.04376690694830615 .
00860678090415567 0 18 574 173 532 575 523 568 521 ?2 81 1 532 299 68 574 0 0 52
6 543 572 17 575 0 540 537 538 574 542 573 0 571 +18 523 169 534 539 578 574 13
 ?2 81 1 534 297 68 523 0 0 580 526 576 17 539 0 579 577 545 523 533 541 0 581 +
18 578 48 585 583 582 523 584 ?2 81 1 585 286 68 578 0 0 552 561 586 17 583 0 59
0 588 587 578 555 525 0 589 -18 582 53 591 595 592 578 593 ?2 29 584 50 0 578 0
 593 -.0723169069483061 .00785678090415568 .001 29 593 55 0 582 584 594 -.044572
9068484847 .0078564119482794 .001 29 594 60 0 592 593 597 -.04451690694830615 .0
03606780904155685 .001 18 592 58 600 599 596 582 594 ?2 29 597 65 0 596 594 598
 -.0723169069483061 .00360678090415568 .001 18 596 63 603 604 602 592 597 ?2 29
 598 70 0 602 597 547 -.0733335674717207 .002856780904155675 .001 18 602 68 605
 601 544 596 598 ?2 29 547 75 0 544 598 546 -.0437669069483061 .0028567809041556
85 .001 18 544 73 580 608 535 602 547 ?2 81 1 580 296 68 544 0 0 566 534 607 17
 608 0 606 610 609 544 615 612 0 613 +15 606 7 0 609 611 0 17 610 0 606 614 608
 535 619 620 0 538 -17 609 0 606 608 614 602 545 617 0 0 -17 615 0 618 530 613 6
02 608 612 0 609 -16 612 33 616 ?608 620 617 623 0 0 2 17 613 0 618 615 625 544
 569 527 0 619 -15 618 230 0 625 621 0 17 625 0 618 613 530 568 624 622 0 626 +1
7 569 0 630 571 619 568 613 527 0 625 +16 527 220 628 ?569 15 573 627 0 0 2 17 6
19 0 630 569 542 544 610 620 0 0 +15 630 228 0 571 629 0 17 542 0 630 619 571 53
5 575 573 0 610 -16 620 38 631 ?619 635 612 633 0 0 2 81 1 631 320 68 620 0 0 63
2 634 636 16 635 43 640 ?538 637 620 638 0 0 2 30 633 40 0 620 623 638 0 +-.0437
6690694830615 .00573178090415568 .001 362029247160378e-29 -1 0 30 623 35 0 612 6
39 633 0 +-.0585502372100134 .00285678090415568 .001 1 2346864265719875e-31 0 30
 638 45 0 635 633 642 0 +-.0585502372100134 .00860678090415567 .001 1 0 0 30 642
 209 0 645 638 644 0 +-.0723169069483061 .00573178090415568 0 0 -1 0 16 645 165
 641 ?643 648 0 642 0 0 2 30 644 208 0 648 642 649 0 +-.0584449068983954 .007856
59642621754 0 .999999999911574 -132985825735794e-19 0 16 648 161 634 ?558 647 64
5 644 0 0 2 30 649 207 0 647 644 650 0 +-.0445449068983954 .00573159642621754 0
 .01317644710083384 -.999913186852638 0 16 647 157 646 ?556 653 648 649 0 0 2 30
 650 206 0 653 649 652 0 +-.0584169069483061 .00360678090415568 0 -1 -1716003438
466265e-31 0 16 653 153 651 ?655 654 647 650 0 0 2 30 652 205 0 654 650 660 0 +-
.0733335674717207 .00573178090415567 0 0 1 0 16 654 149 657 ?581 622 653 652 0 0
 2 30 660 204 0 622 652 658 0 +-.0585502372100134 .00285678090415568 0 1 2346864
265719875e-31 0 16 622 145 656 ?625 659 654 660 0 0 2 30 658 203 0 659 660 664 0
 +-.04376690694830615 .00573178090415568 0 362029247160378e-29 -1 0 16 659 141 6
32 ?626 665 622 658 0 0 2 30 664 202 0 665 658 662 0 +-.0585502372100134 .008606
78090415567 0 1 0 0 16 665 137 663 ?661 668 659 664 0 0 2 30 662 250 0 541 664 6
70 0 +-.0733335674717207 .00860678090415567 .001 0 0 -1 16 541 218 666 ?539 573
 525 662 0 0 2 30 670 251 0 573 662 627 0 +-.04376690694830615 .0086067809041556
7 .001 0 0 -1 16 573 219 669 ?575 527 541 670 0 0 2 30 627 252 0 527 670 528 0 +
-.0437669069483061 .002856780904155685 .001 0 0 -1 30 528 253 0 15 627 667 0 +-.
0733335674717207 .002856780904155675 .001 0 0 -1 30 667 254 0 637 528 671 0 +-.0
723169069483061 .00360678090415568 .001 0 0 -1 16 637 222 675 ?565 673 635 667 0
 0 2 30 671 255 0 673 667 522 0 +-.04451690694830615 .003606780904155685 .001 0
 0 -1 16 673 223 672 ?674 676 637 671 0 0 2 30 522 256 0 676 671 12 0 +-.0445729
068484847 .0078564119482794 .001 0 0 -1 16 676 224 680 ?678 525 673 522 0 0 2 81
 1 680 303 68 676 0 0 675 672 677 17 678 0 679 556 681 554 685 676 0 682 +16 525
 225 683 ?555 541 676 12 0 0 2 81 1 683 301 68 525 0 0 543 675 684 17 555 0 687
 558 589 548 583 525 0 690 +15 687 238 0 558 689 0 17 558 0 687 685 555 554 690
 648 0 678 +17 589 0 687 555 685 578 595 686 0 688 -17 690 0 693 643 682 548 558
 648 0 587 -15 693 135 0 643 694 692 17 643 0 693 695 690 563 587 645 0 0 +17 68
2 0 693 690 695 554 556 647 0 0 -17 587 0 590 583 565 548 643 645 0 0 -15 590 24
0 0 587 520 0 17 565 0 590 587 588 563 691 637 0 655 +17 588 0 590 565 583 596 6
88 668 0 0 +17 691 0 698 697 655 596 565 637 0 588 -17 655 0 698 691 674 563 695
 653 0 643 +15 698 234 0 655 696 0 17 674 0 698 655 697 559 700 673 0 695 +17 69
5 0 693 682 643 559 655 653 0 0 -17 697 0 698 674 691 592 604 699 0 0 -17 700 0
 679 681 556 592 674 673 0 697 -15 679 236 0 556 705 0 17 681 0 679 678 700 582
 599 702 0 0 -17 556 0 679 700 678 559 682 647 0 674 +17 599 0 703 604 595 592 6
81 702 0 700 +16 702 18 701 ?599 699 686 704 0 0 2 81 1 701 312 68 702 0 0 646 6
56 709 16 699 23 710 ?604 617 702 707 0 0 2 16 686 13 708 ?595 702 668 706 0 0 2
 30 704 20 0 702 706 707 0 +-.0445449068983954 .00573159642621754 .001 .01317644
710083384 -.999913186852638 0 30 706 15 0 686 713 704 0 +-.0584449068983954 .007
85659642621754 .001 .999999999911574 -132985825735794e-19 0 30 707 25 0 699 704
 639 0 +-.0584169069483061 .00360678090415568 .001 -1 -1716003438466265e-31 0 30
 639 30 0 617 707 623 0 +-.0733335674717207 .00573178090415567 .001 0 1 0 16 617
 28 715 ?545 612 699 639 0 0 2 81 1 715 316 68 617 0 0 657 663 711 17 545 0 579
 539 601 16 609 617 0 614 +15 579 232 0 577 517 0 17 601 0 579 545 577 602 530 1
5 0 615 -17 614 0 606 609 610 16 538 635 0 0 -17 538 0 540 575 533 535 614 635 0
 0 +15 540 226 0 537 714 0 17 537 0 540 533 575 523 661 665 0 0 -14 714 227 712
 ?611 696 540 10 716 +0 0 611 696 524 81 1 712 346 125 714 720 0 718 717 719 14
 611 1 717 ?694 714 703 10 721 +0 0 694 714 524 14 696 235 718 ?714 705 698 10 7
25 -0 0 714 705 524 50 716 242 0 714 723 722 0 +-.0585502372100134 .008606780904
15567 .001 0 1 0 0 0 1 13 524 90 0 0 0 0 0 0 14 517 14 517 233 724 ?621 0 579 10
 726 +0 0 621 0 524 81 1 724 339 125 517 730 0 0 727 728 14 621 231 727 ?629 517
 618 10 729 -0 0 629 517 524 50 726 245 0 517 729 725 0 +-.0733335674717207 .005
73178090415567 .001 -1 0 0 0 0 1 50 729 244 0 621 722 726 0 +-.0585502372100134
 .00285678090415568 .001 -2346864265719875e-31 1 0 -1 -2346864265719875e-31 0 50
 725 246 0 696 726 732 0 +-.0584169069483061 .00360678090415568 .001 17160034384
66265e-31 -1 0 1 1716003438466265e-31 0 50 732 247 0 705 725 519 0 +-.0445449068
983954 .00573159642621754 .001 .999913186852638 .01317644710083384 0 -.013176447
10083384 .999913186852638 0 14 705 237 735 ?696 689 679 10 732 -0 0 696 689 524
 50 519 248 0 689 732 11 0 +-.0584449068983954 .00785659642621754 .001 132985825
735794e-19 .999999999911574 0 -.999999999911574 132985825735794e-19 0 14 689 239
 734 ?705 520 687 10 519 -0 0 705 520 524 81 1 734 343 125 689 731 0 733 735 738
 14 520 241 733 ?689 629 590 10 11 +0 0 689 629 524 81 1 733 342 125 520 739 0 7
37 734 740 14 629 229 737 ?520 621 630 10 722 +0 0 520 621 524 81 1 737 341 125
 629 736 0 727 733 743 50 722 243 0 629 716 729 0 +-.04376690694830615 .00573178
090415568 .001 1 362029247160378e-29 0 -362029247160378e-29 1 0 81 1 736 332 68
 629 0 737 720 731 742 81 1 727 340 125 621 741 0 724 737 745 83 3 743 .97254901
9607843 .529411764705882 .00392156862745098 81 1 741 329 68 621 0 727 744 730 75
0 83 3 745 .972549019607843 .529411764705882 .00392156862745098 81 1 744 328 68
 705 0 735 747 741 748 81 1 730 330 68 517 0 724 741 720 746 82 3 750 20 4 2 81
 1 720 331 68 714 0 712 730 736 749 82 3 746 20 5 2 82 3 749 20 6 2 81 1 735 344
 125 705 744 0 734 718 754 81 1 747 327 68 611 0 717 755 744 752 82 3 748 20 3 2
 81 1 717 347 125 611 747 0 712 753 751 81 1 755 326 68 694 0 753 739 747 758 82
 3 752 20 2 2 14 694 124 753 ?0 611 693 10 723 -0 0 0 611 524 81 1 753 348 125 6
94 755 0 717 0 760 81 1 739 325 68 520 0 733 710 755 756 82 3 758 20 1 2 81 1 71
0 324 68 699 0 0 651 739 759 82 3 756 20 0 2 81 1 651 323 68 653 0 0 708 710 757
 82 3 759 20 23 1 81 1 708 322 68 686 0 0 634 651 761 82 3 757 20 22 1 81 1 634
 321 68 648 0 0 631 708 765 82 3 761 20 21 1 82 3 765 20 20 1 83 3 760 .97254901
9607843 .529411764705882 .00392156862745098 50 723 201 0 694 721 716 0 +-.058550
2372100134 .00573178090415567 0 0 0 1 1 0 0 50 721 3 0 611 0 723 0 +-.0585502372
100134 .00573178090415567 .001 0 0 1 1 0 0 83 3 751 .972549019607843 .5294117647
05882 .00392156862745098 81 1 718 345 125 696 763 0 735 712 762 83 3 754 .972549
019607843 .529411764705882 .00392156862745098 81 1 763 334 68 696 0 718 731 764
 766 83 3 762 .972549019607843 .529411764705882 .00392156862745098 81 1 731 333
 68 689 0 734 736 763 770 81 1 764 335 68 2 0 768 763 0 767 82 3 766 20 9 2 81 1
 768 336 143 2 764 515 0 0 769 82 3 767 20 0 3 81 1 515 337 150 2 768 6 0 0 771
 98 6 769 80 97 114 116 32 51 84 6 771 Part 382 3 770 20 8 2 82 3 742 20 7 2 83
 3 740 .972549019607843 .529411764705882 .00392156862745098 83 3 738 .9725490196
07843 .529411764705882 .00392156862745098 83 3 728 .972549019607843 .52941176470
5882 .00392156862745098 15 703 6 0 688 611 606 17 688 0 703 595 604 578 588 668
 0 0 -17 595 0 703 599 688 582 589 686 0 685 +17 604 0 703 688 599 596 697 699 0
 691 +16 668 8 775 ?588 686 665 713 0 0 2 81 1 775 310 68 668 0 0 641 646 772 30
 713 10 0 668 0 706 0 +-.0723169069483061 .00573178090415568 .001 0 -1 0 81 1 64
1 309 68 645 0 0 669 775 773 81 1 646 311 68 647 0 0 775 701 774 82 3 772 20 9 1
 82 3 774 20 10 1 81 1 669 308 68 573 0 0 666 641 777 82 3 773 20 8 1 81 1 666 3
07 68 541 0 0 628 669 780 82 3 777 20 7 1 81 1 628 306 68 527 0 0 529 666 779 82
 3 780 20 6 1 81 1 529 305 68 15 0 0 672 628 776 82 3 779 20 5 1 81 1 672 304 68
 673 0 0 680 529 778 82 3 776 20 4 1 82 3 778 20 3 1 17 685 0 687 589 558 582 67
8 676 0 681 -83 3 719 .972549019607843 .529411764705882 .00392156862745098 17 66
1 0 692 626 581 574 537 665 0 0 +15 692 136 0 581 694 0 17 626 0 692 624 661 568
 571 659 0 0 +17 581 0 692 661 624 523 577 654 0 537 +17 624 0 692 581 626 564 6
25 622 0 577 -17 577 0 579 601 539 564 581 654 0 0 -17 571 0 630 542 569 574 626
 659 0 661 -17 530 0 618 625 615 564 601 15 0 624 +81 1 657 315 68 654 0 0 616 7
15 783 81 1 663 317 68 665 0 0 715 640 784 82 3 711 20 15 1 81 1 640 318 68 635
 0 0 663 632 782 82 3 784 20 16 1 81 1 632 319 68 659 0 0 640 631 785 82 3 782 2
0 17 1 82 3 785 20 18 1 81 1 616 314 68 612 0 0 656 657 781 82 3 783 20 14 1 81
 1 656 313 68 622 0 0 701 616 788 82 3 781 20 13 1 82 3 788 20 12 1 82 3 709 20
 11 1 81 1 543 300 68 535 0 0 532 683 787 81 1 675 302 68 637 0 0 683 680 786 82
 3 684 20 0 1 82 3 786 20 1 1 82 3 787 20 15 0 82 3 677 20 2 1 82 3 636 20 19 1
 81 1 566 295 68 568 0 0 605 580 790 82 3 607 20 11 0 81 1 605 294 68 602 0 0 56
7 566 789 82 3 790 20 10 0 81 1 567 293 68 564 0 0 600 605 795 82 3 789 20 9 0 8
1 1 600 292 68 592 0 0 560 567 792 82 3 795 20 8 0 81 1 560 291 68 559 0 0 591 6
00 793 82 3 792 20 7 0 81 1 591 290 68 582 0 0 553 560 791 82 3 793 20 6 0 81 1
 553 289 68 554 0 0 603 591 794 82 3 791 20 5 0 81 1 603 288 68 596 0 0 561 553
 799 82 3 794 20 4 0 81 1 561 287 68 563 0 0 585 603 800 82 3 799 20 3 0 82 3 80
0 20 2 0 81 1 552 285 68 548 0 0 0 585 797 82 3 586 20 1 0 82 3 797 20 0 0 82 3
 576 20 12 0 82 3 572 20 14 0 82 3 536 20 13 0 19 516 259 0 2 0 14 10 0 S0 74 20
 518 5 0 0 764 768 515 6 753 0 0 0 0 0 0 0 0 0 0 0 0 0 0 0 83 3 511 .97254901960
7843 .529411764705882 .00392156862745098 1 0 
